<mxfile host="app.diagrams.net" modified="2022-07-06T14:46:34.007Z" agent="5.0 (Windows NT 10.0; Win64; x64) AppleWebKit/537.36 (KHTML, like Gecko) Chrome/103.0.5060.66 Safari/537.36 Edg/103.0.1264.44" etag="hEoeB2j7RZMJnEna8va0" version="20.0.4" type="github">
  <diagram id="R7e9KVuFXxSIgpA9V-PT" name="Page-1">
    <mxGraphModel dx="865" dy="449" grid="0" gridSize="10" guides="1" tooltips="1" connect="1" arrows="1" fold="1" page="1" pageScale="1" pageWidth="850" pageHeight="1100" math="0" shadow="0">
      <root>
        <mxCell id="0" />
        <mxCell id="1" parent="0" />
        <mxCell id="_CAl6fARyQbW0v1_F7Wb-1" value="" style="whiteSpace=wrap;html=1;aspect=fixed;" vertex="1" parent="1">
          <mxGeometry x="66" y="274" width="125" height="125" as="geometry" />
        </mxCell>
        <mxCell id="_CAl6fARyQbW0v1_F7Wb-2" value="&lt;div style=&quot;&quot;&gt;&lt;span style=&quot;background-color: initial;&quot;&gt;Voter Login:&lt;/span&gt;&lt;/div&gt;&lt;div style=&quot;font-size: 6px;&quot;&gt;&lt;span style=&quot;background-color: initial;&quot;&gt;&lt;br&gt;&lt;/span&gt;&lt;/div&gt;&lt;font style=&quot;font-size: 10px;&quot;&gt;&lt;div style=&quot;&quot;&gt;&lt;span style=&quot;background-color: initial;&quot;&gt;1. Authenticate Credentials using OTP.&lt;/span&gt;&lt;/div&gt;&lt;/font&gt;&lt;div style=&quot;&quot;&gt;&lt;span style=&quot;background-color: initial;&quot;&gt;&lt;font style=&quot;font-size: 10px;&quot;&gt;2.Retrieve Voting District&lt;/font&gt;&lt;/span&gt;&lt;/div&gt;&lt;div style=&quot;&quot;&gt;&lt;span style=&quot;background-color: initial;&quot;&gt;&lt;font style=&quot;font-size: 10px;&quot;&gt;3. Return corresponding smart contract&lt;/font&gt;&lt;/span&gt;&lt;/div&gt;" style="text;html=1;strokeColor=none;fillColor=none;align=left;verticalAlign=middle;whiteSpace=wrap;rounded=0;fontStyle=1" vertex="1" parent="1">
          <mxGeometry x="68" y="276.25" width="119" height="115.5" as="geometry" />
        </mxCell>
        <mxCell id="_CAl6fARyQbW0v1_F7Wb-3" value="" style="shape=datastore;whiteSpace=wrap;html=1;fontSize=10;" vertex="1" parent="1">
          <mxGeometry x="179" y="89" width="60" height="60" as="geometry" />
        </mxCell>
        <mxCell id="_CAl6fARyQbW0v1_F7Wb-5" value="" style="endArrow=classic;startArrow=classic;html=1;rounded=0;fontSize=10;" edge="1" parent="1">
          <mxGeometry width="50" height="50" relative="1" as="geometry">
            <mxPoint x="110" y="273" as="sourcePoint" />
            <mxPoint x="201" y="156" as="targetPoint" />
          </mxGeometry>
        </mxCell>
        <mxCell id="_CAl6fARyQbW0v1_F7Wb-6" value="&lt;b&gt;Verify Credentials&lt;/b&gt;" style="text;html=1;strokeColor=none;fillColor=none;align=center;verticalAlign=middle;whiteSpace=wrap;rounded=0;fontSize=10;rotation=-50;" vertex="1" parent="1">
          <mxGeometry x="100" y="190" width="87" height="30" as="geometry" />
        </mxCell>
        <mxCell id="_CAl6fARyQbW0v1_F7Wb-7" value="&lt;b&gt;Government Database&lt;/b&gt;" style="text;html=1;strokeColor=none;fillColor=none;align=center;verticalAlign=middle;whiteSpace=wrap;rounded=0;fontSize=10;" vertex="1" parent="1">
          <mxGeometry x="150.5" y="52" width="117" height="30" as="geometry" />
        </mxCell>
        <mxCell id="_CAl6fARyQbW0v1_F7Wb-8" value="" style="shape=actor;whiteSpace=wrap;html=1;fontSize=10;" vertex="1" parent="1">
          <mxGeometry x="290" y="515" width="34" height="35" as="geometry" />
        </mxCell>
        <mxCell id="_CAl6fARyQbW0v1_F7Wb-9" value="" style="endArrow=classic;html=1;rounded=0;fontSize=10;" edge="1" parent="1">
          <mxGeometry width="50" height="50" relative="1" as="geometry">
            <mxPoint x="286" y="536" as="sourcePoint" />
            <mxPoint x="102" y="401" as="targetPoint" />
          </mxGeometry>
        </mxCell>
        <mxCell id="_CAl6fARyQbW0v1_F7Wb-10" value="&lt;b&gt;Give Credentials&lt;/b&gt;" style="text;html=1;strokeColor=none;fillColor=none;align=center;verticalAlign=middle;whiteSpace=wrap;rounded=0;fontSize=10;rotation=35;" vertex="1" parent="1">
          <mxGeometry x="162" y="446" width="87" height="30" as="geometry" />
        </mxCell>
        <mxCell id="_CAl6fARyQbW0v1_F7Wb-11" value="&lt;span&gt;&lt;font style=&quot;font-size: 12px;&quot;&gt;Smart Contract&lt;/font&gt;&lt;/span&gt;&lt;br style=&quot;&quot;&gt;&lt;br style=&quot;&quot;&gt;Inputs:&lt;br style=&quot;&quot;&gt;1. District&lt;br style=&quot;&quot;&gt;2. List of Candidates" style="shape=note;whiteSpace=wrap;html=1;backgroundOutline=1;darkOpacity=0.05;align=left;fontSize=10;fontStyle=1" vertex="1" parent="1">
          <mxGeometry x="267.5" y="276" width="109" height="128" as="geometry" />
        </mxCell>
        <mxCell id="_CAl6fARyQbW0v1_F7Wb-13" value="" style="endArrow=classic;html=1;rounded=0;fontSize=10;" edge="1" parent="1">
          <mxGeometry width="50" height="50" relative="1" as="geometry">
            <mxPoint x="197" y="344" as="sourcePoint" />
            <mxPoint x="266" y="344" as="targetPoint" />
          </mxGeometry>
        </mxCell>
        <mxCell id="_CAl6fARyQbW0v1_F7Wb-14" value="&lt;b&gt;Voting District&lt;/b&gt;" style="text;html=1;strokeColor=none;fillColor=none;align=center;verticalAlign=middle;whiteSpace=wrap;rounded=0;fontSize=10;" vertex="1" parent="1">
          <mxGeometry x="194" y="315" width="71" height="38" as="geometry" />
        </mxCell>
        <mxCell id="_CAl6fARyQbW0v1_F7Wb-15" value="&lt;b&gt;Voter&lt;/b&gt;" style="text;html=1;strokeColor=none;fillColor=none;align=center;verticalAlign=middle;whiteSpace=wrap;rounded=0;fontSize=10;" vertex="1" parent="1">
          <mxGeometry x="277" y="544" width="60" height="30" as="geometry" />
        </mxCell>
        <mxCell id="_CAl6fARyQbW0v1_F7Wb-16" value="" style="ellipse;whiteSpace=wrap;html=1;fontSize=10;" vertex="1" parent="1">
          <mxGeometry x="287" y="376" width="65" height="23" as="geometry" />
        </mxCell>
        <mxCell id="_CAl6fARyQbW0v1_F7Wb-18" value="" style="endArrow=classic;html=1;rounded=0;fontSize=10;entryX=0.333;entryY=1;entryDx=0;entryDy=0;entryPerimeter=0;exitX=0.5;exitY=0;exitDx=0;exitDy=0;" edge="1" parent="1" source="_CAl6fARyQbW0v1_F7Wb-8" target="_CAl6fARyQbW0v1_F7Wb-16">
          <mxGeometry width="50" height="50" relative="1" as="geometry">
            <mxPoint x="270" y="503" as="sourcePoint" />
            <mxPoint x="367" y="411" as="targetPoint" />
          </mxGeometry>
        </mxCell>
        <mxCell id="_CAl6fARyQbW0v1_F7Wb-19" value="Sign Vote" style="text;html=1;strokeColor=none;fillColor=none;align=center;verticalAlign=middle;whiteSpace=wrap;rounded=0;fontSize=10;fontStyle=1;rotation=-45;" vertex="1" parent="1">
          <mxGeometry x="333" y="455" width="60" height="30" as="geometry" />
        </mxCell>
        <mxCell id="_CAl6fARyQbW0v1_F7Wb-20" value="&lt;b&gt;Select&lt;/b&gt;" style="text;html=1;strokeColor=none;fillColor=none;align=center;verticalAlign=middle;whiteSpace=wrap;rounded=0;fontSize=10;" vertex="1" parent="1">
          <mxGeometry x="311.5" y="382" width="24" height="11" as="geometry" />
        </mxCell>
        <mxCell id="_CAl6fARyQbW0v1_F7Wb-24" value="Select Candidate" style="text;html=1;strokeColor=none;fillColor=none;align=center;verticalAlign=middle;whiteSpace=wrap;rounded=0;fontSize=10;fontStyle=1;rotation=0;" vertex="1" parent="1">
          <mxGeometry x="248" y="431" width="63.5" height="24" as="geometry" />
        </mxCell>
        <mxCell id="_CAl6fARyQbW0v1_F7Wb-26" value="" style="whiteSpace=wrap;html=1;aspect=fixed;fontSize=10;" vertex="1" parent="1">
          <mxGeometry x="401" y="293" width="120" height="120" as="geometry" />
        </mxCell>
        <mxCell id="_CAl6fARyQbW0v1_F7Wb-27" value="" style="endArrow=classic;html=1;rounded=0;fontSize=10;exitX=1;exitY=0.5;exitDx=0;exitDy=0;entryX=0.006;entryY=0.797;entryDx=0;entryDy=0;entryPerimeter=0;" edge="1" parent="1" source="_CAl6fARyQbW0v1_F7Wb-16" target="_CAl6fARyQbW0v1_F7Wb-26">
          <mxGeometry width="50" height="50" relative="1" as="geometry">
            <mxPoint x="380" y="388" as="sourcePoint" />
            <mxPoint x="447" y="384" as="targetPoint" />
          </mxGeometry>
        </mxCell>
        <mxCell id="_CAl6fARyQbW0v1_F7Wb-28" value="&lt;b style=&quot;&quot;&gt;&lt;font style=&quot;font-size: 10px;&quot;&gt;Authentication&lt;br&gt;&lt;/font&gt;&lt;br&gt;Voter needs to read a random generated text facing camera in proper lighting conditions&lt;/b&gt;" style="text;html=1;strokeColor=none;fillColor=none;align=center;verticalAlign=middle;whiteSpace=wrap;rounded=0;fontSize=10;" vertex="1" parent="1">
          <mxGeometry x="401" y="294.5" width="117" height="88" as="geometry" />
        </mxCell>
        <mxCell id="_CAl6fARyQbW0v1_F7Wb-29" value="" style="ellipse;whiteSpace=wrap;html=1;fontSize=10;" vertex="1" parent="1">
          <mxGeometry x="427.25" y="383" width="64.5" height="23" as="geometry" />
        </mxCell>
        <mxCell id="_CAl6fARyQbW0v1_F7Wb-17" value="&lt;b&gt;Vote&lt;/b&gt;" style="text;html=1;strokeColor=none;fillColor=none;align=center;verticalAlign=middle;whiteSpace=wrap;rounded=0;fontSize=10;" vertex="1" parent="1">
          <mxGeometry x="447.5" y="390" width="24" height="11" as="geometry" />
        </mxCell>
        <mxCell id="_CAl6fARyQbW0v1_F7Wb-31" value="" style="endArrow=classic;html=1;rounded=0;fontSize=10;entryX=0.313;entryY=0.95;entryDx=0;entryDy=0;entryPerimeter=0;exitX=0.9;exitY=0.5;exitDx=0;exitDy=0;exitPerimeter=0;" edge="1" parent="1" source="_CAl6fARyQbW0v1_F7Wb-8" target="_CAl6fARyQbW0v1_F7Wb-26">
          <mxGeometry width="50" height="50" relative="1" as="geometry">
            <mxPoint x="340" y="540" as="sourcePoint" />
            <mxPoint x="353" y="452" as="targetPoint" />
            <Array as="points" />
          </mxGeometry>
        </mxCell>
        <mxCell id="_CAl6fARyQbW0v1_F7Wb-33" value="" style="shape=datastore;whiteSpace=wrap;html=1;fontSize=10;" vertex="1" parent="1">
          <mxGeometry x="485" y="85" width="60" height="60" as="geometry" />
        </mxCell>
        <mxCell id="_CAl6fARyQbW0v1_F7Wb-34" value="" style="endArrow=classic;startArrow=classic;html=1;rounded=0;fontSize=10;entryX=0.5;entryY=1;entryDx=0;entryDy=0;" edge="1" parent="1" target="_CAl6fARyQbW0v1_F7Wb-33">
          <mxGeometry width="50" height="50" relative="1" as="geometry">
            <mxPoint x="453" y="291" as="sourcePoint" />
            <mxPoint x="488" y="201" as="targetPoint" />
          </mxGeometry>
        </mxCell>
        <mxCell id="_CAl6fARyQbW0v1_F7Wb-35" value="&lt;b&gt;Image Processing Unit&lt;/b&gt;" style="text;html=1;strokeColor=none;fillColor=none;align=center;verticalAlign=middle;whiteSpace=wrap;rounded=0;fontSize=10;" vertex="1" parent="1">
          <mxGeometry x="475.5" y="48" width="79" height="30" as="geometry" />
        </mxCell>
        <mxCell id="_CAl6fARyQbW0v1_F7Wb-36" value="&lt;b&gt;1. Verify Image&lt;/b&gt;" style="text;html=1;strokeColor=none;fillColor=none;align=center;verticalAlign=middle;whiteSpace=wrap;rounded=0;fontSize=10;rotation=-65;" vertex="1" parent="1">
          <mxGeometry x="432" y="201" width="80" height="30" as="geometry" />
        </mxCell>
        <mxCell id="_CAl6fARyQbW0v1_F7Wb-43" value="POA NETWORK" style="swimlane;fontSize=12;" vertex="1" parent="1">
          <mxGeometry x="619" y="241" width="126" height="235" as="geometry" />
        </mxCell>
        <mxCell id="_CAl6fARyQbW0v1_F7Wb-44" value="&lt;b&gt;Election Commisioner&lt;/b&gt;" style="rounded=0;whiteSpace=wrap;html=1;fontSize=12;" vertex="1" parent="_CAl6fARyQbW0v1_F7Wb-43">
          <mxGeometry x="19.25" y="37" width="88" height="40" as="geometry" />
        </mxCell>
        <mxCell id="_CAl6fARyQbW0v1_F7Wb-45" value="&lt;b&gt;Polling Officer 1&lt;/b&gt;" style="rounded=0;whiteSpace=wrap;html=1;fontSize=12;" vertex="1" parent="_CAl6fARyQbW0v1_F7Wb-43">
          <mxGeometry x="12.5" y="104" width="101.5" height="25" as="geometry" />
        </mxCell>
        <mxCell id="_CAl6fARyQbW0v1_F7Wb-46" value="&lt;b&gt;Polling Officer N&lt;/b&gt;" style="rounded=0;whiteSpace=wrap;html=1;fontSize=12;" vertex="1" parent="_CAl6fARyQbW0v1_F7Wb-43">
          <mxGeometry x="12" y="198" width="102" height="25" as="geometry" />
        </mxCell>
        <mxCell id="_CAl6fARyQbW0v1_F7Wb-47" value="" style="endArrow=none;dashed=1;html=1;dashPattern=1 3;strokeWidth=2;rounded=0;fontSize=12;" edge="1" parent="_CAl6fARyQbW0v1_F7Wb-43">
          <mxGeometry width="50" height="50" relative="1" as="geometry">
            <mxPoint x="62.83" y="186" as="sourcePoint" />
            <mxPoint x="62.83" y="133" as="targetPoint" />
          </mxGeometry>
        </mxCell>
        <mxCell id="_CAl6fARyQbW0v1_F7Wb-48" value="" style="endArrow=classic;startArrow=classic;html=1;rounded=0;fontSize=12;entryX=0.5;entryY=1;entryDx=0;entryDy=0;exitX=0.5;exitY=0;exitDx=0;exitDy=0;" edge="1" parent="_CAl6fARyQbW0v1_F7Wb-43" source="_CAl6fARyQbW0v1_F7Wb-45" target="_CAl6fARyQbW0v1_F7Wb-44">
          <mxGeometry width="50" height="50" relative="1" as="geometry">
            <mxPoint x="70.25" y="148" as="sourcePoint" />
            <mxPoint x="120.25" y="98" as="targetPoint" />
          </mxGeometry>
        </mxCell>
        <mxCell id="_CAl6fARyQbW0v1_F7Wb-49" value="" style="endArrow=classic;html=1;rounded=0;fontSize=10;exitX=1;exitY=0.75;exitDx=0;exitDy=0;" edge="1" parent="1" source="_CAl6fARyQbW0v1_F7Wb-28">
          <mxGeometry width="50" height="50" relative="1" as="geometry">
            <mxPoint x="538" y="378" as="sourcePoint" />
            <mxPoint x="615" y="359" as="targetPoint" />
          </mxGeometry>
        </mxCell>
        <mxCell id="_CAl6fARyQbW0v1_F7Wb-50" value="&lt;b&gt;2. Verify Vote&lt;/b&gt;" style="text;html=1;strokeColor=none;fillColor=none;align=center;verticalAlign=middle;whiteSpace=wrap;rounded=0;fontSize=10;" vertex="1" parent="1">
          <mxGeometry x="526" y="334" width="72" height="30" as="geometry" />
        </mxCell>
        <mxCell id="_CAl6fARyQbW0v1_F7Wb-52" value="" style="endArrow=classic;html=1;rounded=0;fontSize=10;exitX=0;exitY=1;exitDx=0;exitDy=0;entryX=0.889;entryY=0;entryDx=0;entryDy=0;entryPerimeter=0;" edge="1" parent="1" source="_CAl6fARyQbW0v1_F7Wb-43" target="_CAl6fARyQbW0v1_F7Wb-15">
          <mxGeometry width="50" height="50" relative="1" as="geometry">
            <mxPoint x="618.0000000000001" y="496" as="sourcePoint" />
            <mxPoint x="448.73" y="502.16667683919275" as="targetPoint" />
            <Array as="points" />
          </mxGeometry>
        </mxCell>
        <mxCell id="_CAl6fARyQbW0v1_F7Wb-54" value="&lt;b&gt;Message Sent with Transaction ID &amp;amp; Link to verify Vote&lt;/b&gt;" style="text;html=1;strokeColor=none;fillColor=none;align=center;verticalAlign=middle;whiteSpace=wrap;rounded=0;fontSize=10;rotation=-15;" vertex="1" parent="1">
          <mxGeometry x="385" y="478.98" width="181" height="30" as="geometry" />
        </mxCell>
        <mxCell id="_CAl6fARyQbW0v1_F7Wb-64" value="" style="group" vertex="1" connectable="0" parent="1">
          <mxGeometry x="112.5" y="614" width="419" height="118.63846153846157" as="geometry" />
        </mxCell>
        <mxCell id="_CAl6fARyQbW0v1_F7Wb-55" value="Block 0 " style="swimlane;fontSize=10;startSize=23;fontStyle=1;container=0;" vertex="1" parent="_CAl6fARyQbW0v1_F7Wb-64">
          <mxGeometry y="0.8538461538461206" width="110.66139954853273" height="117.78461538461539" as="geometry">
            <mxRectangle x="145" y="711" width="146" height="23" as="alternateBounds" />
          </mxGeometry>
        </mxCell>
        <mxCell id="_CAl6fARyQbW0v1_F7Wb-57" value="Block 1&#xa;Prev Hash 0 " style="swimlane;fontSize=10;startSize=41;fontStyle=1;container=0;" vertex="1" parent="_CAl6fARyQbW0v1_F7Wb-64">
          <mxGeometry x="140.93" width="106.07" height="118" as="geometry">
            <mxRectangle x="145" y="711" width="146" height="23" as="alternateBounds" />
          </mxGeometry>
        </mxCell>
        <mxCell id="_CAl6fARyQbW0v1_F7Wb-59" value="" style="endArrow=classic;html=1;rounded=0;fontSize=10;fontStyle=1" edge="1" parent="_CAl6fARyQbW0v1_F7Wb-64">
          <mxGeometry width="50" height="50" relative="1" as="geometry">
            <mxPoint x="147.548532731377" y="27.32307692307677" as="sourcePoint" />
            <mxPoint x="82.28668171557564" y="100.7538461538461" as="targetPoint" />
            <Array as="points">
              <mxPoint x="122.95711060948082" y="27.323076923076883" />
              <mxPoint x="122.95711060948082" y="53.792307692307645" />
              <mxPoint x="122.95711060948082" y="100.7538461538461" />
            </Array>
          </mxGeometry>
        </mxCell>
        <mxCell id="_CAl6fARyQbW0v1_F7Wb-60" value="Block N&#xa;Prev Hash N-1 " style="swimlane;fontSize=10;startSize=41;fontStyle=1;container=0;" vertex="1" parent="_CAl6fARyQbW0v1_F7Wb-64">
          <mxGeometry x="309" y="0.8500000000000227" width="110" height="117.15" as="geometry">
            <mxRectangle x="145" y="711" width="146" height="23" as="alternateBounds" />
          </mxGeometry>
        </mxCell>
        <mxCell id="_CAl6fARyQbW0v1_F7Wb-62" value="" style="endArrow=none;dashed=1;html=1;dashPattern=1 3;strokeWidth=2;rounded=0;fontSize=10;fontStyle=1" edge="1" parent="_CAl6fARyQbW0v1_F7Wb-64">
          <mxGeometry width="50" height="50" relative="1" as="geometry">
            <mxPoint x="251.58916478555307" y="67.45384615384614" as="sourcePoint" />
            <mxPoint x="304.5553047404063" y="67.45384615384614" as="targetPoint" />
          </mxGeometry>
        </mxCell>
        <mxCell id="_CAl6fARyQbW0v1_F7Wb-56" value="- Transaction &lt;br style=&quot;font-size: 10px;&quot;&gt;Details&lt;br style=&quot;font-size: 10px;&quot;&gt;&lt;br style=&quot;font-size: 10px;&quot;&gt;&lt;br style=&quot;font-size: 10px;&quot;&gt;&lt;br style=&quot;font-size: 10px;&quot;&gt;&lt;div style=&quot;text-align: center; font-size: 10px;&quot;&gt;&lt;span style=&quot;font-size: 10px;&quot;&gt;Hash 0&lt;/span&gt;&lt;/div&gt;" style="text;html=1;align=left;verticalAlign=middle;resizable=0;points=[];autosize=1;strokeColor=none;fillColor=none;fontSize=10;fontStyle=1;container=0;" vertex="1" parent="_CAl6fARyQbW0v1_F7Wb-64">
          <mxGeometry x="14.187358916478559" y="31.638461538461456" width="80" height="84" as="geometry" />
        </mxCell>
        <mxCell id="_CAl6fARyQbW0v1_F7Wb-58" value="- Transaction &lt;br style=&quot;font-size: 10px;&quot;&gt;Details&lt;br style=&quot;font-size: 10px;&quot;&gt;&lt;br style=&quot;font-size: 10px;&quot;&gt;&lt;div style=&quot;text-align: center; font-size: 10px;&quot;&gt;&lt;span style=&quot;font-size: 10px;&quot;&gt;Hash 1&lt;/span&gt;&lt;/div&gt;" style="text;html=1;align=left;verticalAlign=middle;resizable=0;points=[];autosize=1;strokeColor=none;fillColor=none;fontSize=10;fontStyle=1;container=0;" vertex="1" parent="_CAl6fARyQbW0v1_F7Wb-64">
          <mxGeometry x="146.13203160270882" y="48.8384615384615" width="80" height="60" as="geometry" />
        </mxCell>
        <mxCell id="_CAl6fARyQbW0v1_F7Wb-61" value="- Transaction &lt;br style=&quot;font-size: 10px;&quot;&gt;Details&lt;br style=&quot;font-size: 10px;&quot;&gt;&lt;br style=&quot;font-size: 10px;&quot;&gt;&lt;div style=&quot;text-align: center; font-size: 10px;&quot;&gt;&lt;span style=&quot;font-size: 10px;&quot;&gt;Hash N&lt;/span&gt;&lt;/div&gt;" style="text;html=1;align=left;verticalAlign=middle;resizable=0;points=[];autosize=1;strokeColor=none;fillColor=none;fontSize=10;fontStyle=1;container=0;" vertex="1" parent="_CAl6fARyQbW0v1_F7Wb-64">
          <mxGeometry x="314.2020316027088" y="49.688461538461524" width="80" height="60" as="geometry" />
        </mxCell>
        <mxCell id="_CAl6fARyQbW0v1_F7Wb-65" value="" style="endArrow=classic;html=1;rounded=0;fontSize=10;exitX=0.5;exitY=1;exitDx=0;exitDy=0;entryX=1;entryY=0.5;entryDx=0;entryDy=0;" edge="1" parent="1" source="_CAl6fARyQbW0v1_F7Wb-43" target="_CAl6fARyQbW0v1_F7Wb-60">
          <mxGeometry width="50" height="50" relative="1" as="geometry">
            <mxPoint x="657" y="550" as="sourcePoint" />
            <mxPoint x="579" y="657" as="targetPoint" />
            <Array as="points">
              <mxPoint x="682" y="673" />
            </Array>
          </mxGeometry>
        </mxCell>
        <mxCell id="_CAl6fARyQbW0v1_F7Wb-66" value="&lt;b&gt;Append New Block&lt;/b&gt;" style="text;html=1;strokeColor=none;fillColor=none;align=center;verticalAlign=middle;whiteSpace=wrap;rounded=0;fontSize=10;" vertex="1" parent="1">
          <mxGeometry x="561" y="645" width="94" height="30" as="geometry" />
        </mxCell>
      </root>
    </mxGraphModel>
  </diagram>
</mxfile>
